#!OML:ASF F:\VICON\USERDATA\INSTALL\rory3\rory3.ASF
:FULLY-SPECIFIED
:DEGREES
221
root 4.06457 17.3525 16.8487 -5.24487 44.2546 -4.4709
lowerback 6.24399 -1.88891 0.2578
upperback 0.823359 -2.34748 4.1469
thorax -2.48599 -1.144 4.33956
lowerneck -17.4752 -3.74941 -9.57963
upperneck 21.0354 -3.44446 4.05584
head 9.81699 -1.88279 2.54383
rclavicle 8.53283e-014 5.56597e-015
rhumerus -36.6515 -10.6616 -77.5257
rradius 27.6978
rwrist 4.05095
rhand -13.294 12.1927
rfingers 7.12502
rthumb 12.8098 -17.3943
lclavicle 8.53283e-014 5.56597e-015
lhumerus -30.3862 9.07388 83.2715
lradius 36.3301
lwrist -5.12529
lhand -18.3743 25.6371
lfingers 7.12502
lthumb 7.90909 55.4691
rfemur -11.9894 0.753656 29.2731
rtibia 27.808
rfoot -10.2157 -4.55187
rtoes 3.95984
lfemur -16.6196 2.21917 -16.4972
ltibia 71.444
lfoot 7.83928 -6.14141
ltoes 2.53893
222
root 4.19467 17.3508 17.0417 -5.88188 43.7735 -5.42389
lowerback 6.29337 -1.69996 0.987117
upperback 0.851994 -2.03387 4.35398
thorax -2.52507 -0.990613 4.12001
lowerneck -17.4943 -3.77444 -9.53389
upperneck 21.1292 -3.45373 3.90716
head 9.85161 -1.90121 2.48302
rclavicle -5.05907e-014 -7.15625e-015
rhumerus -35.3696 -10.5394 -77.3178
rradius 27.0577
rwrist 4.35629
rhand -13.1572 12.0227
rfingers 7.12502
rthumb 12.9416 -17.5559
lclavicle -5.05907e-014 -7.15625e-015
lhumerus -30.6779 9.40415 83.3718
lradius 35.4636
lwrist -5.6022
lhand -17.5403 25.1032
lfingers 7.12502
lthumb 8.714 54.9033
rfemur -10.9758 0.823859 30.2997
rtibia 27.6276
rfoot -10.6917 -4.56604
rtoes 4.98865
lfemur -18.3576 2.66203 -15.7808
ltibia 72.0031
lfoot 5.43288 -4.99406
ltoes 4.61621
223
root 4.32934 17.3413 17.2215 -5.44119 43.6344 -4.82257
lowerback 6.5054 -1.55475 0.767989
upperback 0.684599 -1.85336 4.10794
thorax -2.82922 -0.897495 3.98408
lowerneck -16.9174 -3.70196 -8.88934
upperneck 21.0393 -3.51613 3.61025
head 9.6968 -1.91499 2.26828
rclavicle 3.12837e-014 -2.38542e-015
rhumerus -34.5964 -10.5815 -77.2217
rradius 26.7276
rwrist 4.27069
rhand -12.9179 11.696
rfingers 7.12502
rthumb 13.1723 -17.8679
lclavicle 3.12837e-014 -2.38542e-015
lhumerus -31.5505 8.71598 83.4365
lradius 35.0878
lwrist -5.06966
lhand -17.2407 25.1793
lfingers 7.12502
lthumb 9.00309 54.9672
rfemur -10.0762 0.515184 30.0009
rtibia 27.5597
rfoot -11.0529 -4.56099
rtoes 1.12467
lfemur -19.9724 2.21052 -16.6747
ltibia 72.1279
lfoot 3.80135 -3.04575
ltoes 8.3421
224
root 4.46809 17.325 17.4057 -5.05047 43.4608 -4.11286
lowerback 6.60926 -1.49464 0.273141
upperback 0.714885 -1.81566 3.94238
thorax -2.84797 -0.875445 4.09063
lowerneck -16.9168 -3.7569 -9.14063
upperneck 20.947 -3.52492 3.61919
head 9.67133 -1.93732 2.31064
rclavicle -1.09356e-013 1.19271e-014
rhumerus -35.7113 -11.1664 -77.1161
rradius 28.5481
rwrist 4.86965
rhand -13.1184 11.5628
rfingers 7.12502
rthumb 12.9791 -18.0135
lclavicle -1.09356e-013 1.19271e-014
lhumerus -32.1764 8.40351 83.6119
lradius 34.706
lwrist -4.18313
lhand -17.3917 24.9506
lfingers 7.12502
lthumb 8.8574 54.7447
rfemur -9.10606 0.36802 29.6102
rtibia 27.6508
rfoot -11.7653 -4.71722
rtoes -1.24525
lfemur -21.4003 1.8261 -17.7404
ltibia 71.8706
lfoot 2.00128 -1.8634
ltoes 8.17129
225
root 4.60286 17.3246 17.5882 -5.19457 42.9927 -4.31989
lowerback 6.70145 -1.43577 0.445791
upperback 0.785273 -1.72012 4.02181
thorax -2.83599 -0.829216 4.06918
lowerneck -17.1694 -3.7251 -9.38794
upperneck 20.9759 -3.38728 3.62083
head 9.72472 -1.89177 2.36854
rclavicle -2.68359e-015 -6.67916e-014
rhumerus -33.5559 -10.6863 -77.1051
rradius 27.5579
rwrist 4.59683
rhand -13.2243 11.5061
rfingers 7.12502
rthumb 12.877 -18.0767
lclavicle -2.68359e-015 -6.67916e-014
lhumerus -32.4259 8.68432 83.868
lradius 34.1288
lwrist -3.26144
lhand -17.8047 25.4664
lfingers 7.12502
lthumb 8.45879 55.277
rfemur -8.33823 0.665993 29.9626
rtibia 27.8754
rfoot -12.5304 -4.54178
rtoes -0.0327872
lfemur -22.8797 1.99612 -17.8601
ltibia 71.3261
lfoot 3.25274 -0.191606
ltoes 17.9055
226
root 4.73066 17.3204 17.7599 -5.37358 42.3983 -4.80097
lowerback 6.94068 -1.20151 1.01336
upperback 0.695965 -1.35091 4.05767
thorax -3.09948 -0.647794 3.76205
lowerneck -17.3121 -3.80062 -9.5471
upperneck 21.0703 -3.46737 3.75798
head 9.79643 -1.92624 2.43147
rclavicle -2.88486e-014 1.51076e-014
rhumerus -32.7726 -11.0376 -76.9038
rradius 27.6911
rwrist 4.7687
rhand -13.3973 11.6042
rfingers 7.12502
rthumb 12.7102 -17.989
lclavicle -2.88486e-014 1.51076e-014
lhumerus -32.5959 8.89163 83.9368
lradius 33.0635
lwrist -3.15287
lhand -17.8761 26.2491
lfingers 7.12502
lthumb 8.38986 56.0625
rfemur -7.75226 1.10793 30.5527
rtibia 27.9974
rfoot -13.283 -4.32858
rtoes 1.53906
lfemur -24.4787 2.28227 -17.5879
ltibia 70.6444
lfoot -3.66014 -1.58716
ltoes -0.475844
227
root 4.85809 17.2979 17.9401 -5.35167 42.0611 -5.04997
lowerback 6.99641 -1.0192 1.30437
upperback 0.635372 -1.08011 4.06144
thorax -3.21444 -0.515307 3.57874
lowerneck -17.1491 -3.6591 -9.33433
upperneck 21.0512 -3.30846 3.60951
head 9.74042 -1.85295 2.36767
rclavicle 7.07176e-014 7.15625e-015
rhumerus -33.0326 -11.785 -76.6712
rradius 28.9102
rwrist 4.79855
rhand -13.1012 11.6178
rfingers 7.12502
rthumb 12.9956 -17.9574
lclavicle 7.07176e-014 7.15625e-015
lhumerus -32.7577 9.26449 83.8555
lradius 31.7983
lwrist -3.90359
lhand -17.9409 26.2767
lfingers 7.12502
lthumb 8.32738 56.0926
rfemur -7.10568 1.57638 30.9752
rtibia 27.917
rfoot -13.9434 -4.61135
rtoes 3.2373
lfemur -26.077 2.01423 -17.5257
ltibia 69.818
lfoot -4.64928 -0.488645
ltoes 2.30173
228
root 4.98886 17.268 18.1295 -5.3126 42.0349 -5.15559
lowerback 6.94192 -1.04449 1.28892
upperback 0.67814 -1.11621 4.11807
thorax -3.13634 -0.533073 3.6478
lowerneck -17.115 -3.55442 -8.83038
upperneck 20.9638 -3.22636 3.28038
head 9.68115 -1.81086 2.1798
rclavicle -5.03422e-014 5.56597e-015
rhumerus -34.2094 -12.2812 -76.7262
rradius 31.3494
rwrist 4.51587
rhand -12.7409 11.0992
rfingers 7.12502
rthumb 13.343 -18.4536
lclavicle -5.03422e-014 5.56597e-015
lhumerus -33.1149 9.6193 83.8224
lradius 31.0189
lwrist -4.28562
lhand -17.1564 25.2411
lfingers 7.12502
lthumb 9.08445 55.0255
rfemur -6.29028 2.03646 31.2985
rtibia 27.7744
rfoot -14.5852 -5.11263
rtoes 5.57254
lfemur -27.4605 1.17291 -17.643
ltibia 68.7109
lfoot -6.32664 0.0436978
ltoes 4.7265
229
root 5.12621 17.2446 18.3155 -5.37376 42.0308 -5.38836
lowerback 7.02481 -1.10126 1.57691
upperback 0.652282 -1.16374 4.12568
thorax -3.21279 -0.559498 3.5004
lowerneck -17.2596 -3.49717 -9.28008
upperneck 20.86 -3.04149 3.42615
head 9.67064 -1.74231 2.32824
rclavicle -7.00716e-015 3.26007e-014
rhumerus -31.9452 -11.1548 -76.8903
rradius 30.5459
rwrist 2.72787
rhand -12.7484 10.5446
rfingers 7.12502
rthumb 13.3357 -19.0086
lclavicle -7.00716e-015 3.26007e-014
lhumerus -33.655 10.1114 83.4525
lradius 30.2224
lwrist -5.46657
lhand -15.1437 22.2234
lfingers 7.12502
lthumb 11.0261 51.9138
rfemur -5.35576 2.4793 31.6934
rtibia 27.5098
rfoot -15.3533 -5.77792
rtoes 5.73265
lfemur -28.7645 0.366438 -17.6872
ltibia 67.2385
lfoot -7.92591 0.220929
ltoes 4.78783
